<svg class="diagram-root" style="background: #f5f6f6" xmlns="http://www.w3.org/2000/svg" xmlns:xlink="http://www.w3.org/1999/xlink"><style>.diagram-root { font-family: "Helvetica Neue", sans-serif; font-size: 12px; } .t { overflow: visible; } .t-bg { y: 40; fill: #fff;   } .th { fill: #005aa0;   } .tht { fill: #fff; font-size: 14px;  } .tf { fill: #323c46; overflow: visible; } .tf.pk { fill: #005aa0; font-weight: bold; } .tf.fk { font-weight: bold; } .ty { fill: #adb1b5; font-weight: normal; text-anchor: end; } .r { fill: transparent; stroke: #c3c3c3; stroke-width: 1; } .l { stroke: 1; } .i { fill: #c2c7ce; stroke: #c2c7ce; } .i.ix { fill: #afb3b6; stroke: #000; } .fa { fill: transparent; overflow: visible; } .fa .bg.hover { fill: #f7f7f7; } .c { cy: 12; r: 4; stroke: #d2d2dc; fill: #d2d2dc; } .hr { fill: transparent; stroke: #323c46; stroke-opacity: 0.035; stroke-width: 13; } .dc { stroke: #fa5a3c; fill: #fa5a3c; } .x { stroke: white; stroke-width: 1; } .hl .th { fill: #1b9bff; } .hl .tht {  } .fhl .bg { fill: #e7f4ff; } .fhls .bg {  } .r.hl { stroke: #1b9bff; } .dim { opacity: 0.25; }</style><g class="drawing-wrapper" transform="translate(2, -74) scale(1,1)"><g class="rs"><path d="M 176.73 187 m -1, 0 a 1,1 0 1,0 2,0 a 1,1 0 1,0 -2,0 M 176.73 187 m -0.5, 0 a 0.5,0.5 0 1,0 1,0 a 0.5,0.5 0 1,0 -1,0  M176.73 187 L176.73 187 188.73 187 M 176.73 193 m -1, 0 a 1,1 0 1,0 2,0 a 1,1 0 1,0 -2,0 M 176.73 193 m -0.5, 0 a 0.5,0.5 0 1,0 1,0 a 0.5,0.5 0 1,0 -1,0  M176.73 193 L176.73 193 183.73 187 176.73 181 M 176.73 181 m -1, 0 a 1,1 0 1,0 2,0 a 1,1 0 1,0 -2,0 M 176.73 181 m -0.5, 0 a 0.5,0.5 0 1,0 1,0 a 0.5,0.5 0 1,0 -1,0  M188.73 187 Q 208.55 187, 228.37 207.5 T 268 228 M 280 228 m -1, 0 a 1,1 0 1,0 2,0 a 1,1 0 1,0 -2,0 M 280 228 m -0.5, 0 a 0.5,0.5 0 1,0 1,0 a 0.5,0.5 0 1,0 -1,0  M280 228 L280 228 268 228 M274 234 L274 234 274 222" id="h1139284389" class="r"></path><path d="M 554 431 m -1, 0 a 1,1 0 1,0 2,0 a 1,1 0 1,0 -2,0 M 554 431 m -0.5, 0 a 0.5,0.5 0 1,0 1,0 a 0.5,0.5 0 1,0 -1,0  M554 431 L554 431 542 431 M 554 437 m -1, 0 a 1,1 0 1,0 2,0 a 1,1 0 1,0 -2,0 M 554 437 m -0.5, 0 a 0.5,0.5 0 1,0 1,0 a 0.5,0.5 0 1,0 -1,0  M554 437 L554 437 547 431 554 425 M 554 425 m -1, 0 a 1,1 0 1,0 2,0 a 1,1 0 1,0 -2,0 M 554 425 m -0.5, 0 a 0.5,0.5 0 1,0 1,0 a 0.5,0.5 0 1,0 -1,0  M542 431 C 499.2422100659448 431, 501.64221006594477 322, 538 322 M 550 322 m -1, 0 a 1,1 0 1,0 2,0 a 1,1 0 1,0 -2,0 M 550 322 m -0.5, 0 a 0.5,0.5 0 1,0 1,0 a 0.5,0.5 0 1,0 -1,0  M550 322 L550 322 538 322 M544 328 L544 328 544 316" id="h1778622336" class="r"></path><path d="M 452.06 228 m -1, 0 a 1,1 0 1,0 2,0 a 1,1 0 1,0 -2,0 M 452.06 228 m -0.5, 0 a 0.5,0.5 0 1,0 1,0 a 0.5,0.5 0 1,0 -1,0  M452.06 228 L452.06 228 464.06 228 M 452.06 234 m -1, 0 a 1,1 0 1,0 2,0 a 1,1 0 1,0 -2,0 M 452.06 234 m -0.5, 0 a 0.5,0.5 0 1,0 1,0 a 0.5,0.5 0 1,0 -1,0  M452.06 234 L452.06 234 459.06 228 452.06 222 M 452.06 222 m -1, 0 a 1,1 0 1,0 2,0 a 1,1 0 1,0 -2,0 M 452.06 222 m -0.5, 0 a 0.5,0.5 0 1,0 1,0 a 0.5,0.5 0 1,0 -1,0  M464.06 228 Q 482.54 228, 501.03 275 T 538 322 M 550 322 m -1, 0 a 1,1 0 1,0 2,0 a 1,1 0 1,0 -2,0 M 550 322 m -0.5, 0 a 0.5,0.5 0 1,0 1,0 a 0.5,0.5 0 1,0 -1,0  M550 322 L550 322 538 322 M544 328 L544 328 544 316" id="h1915938444" class="r"></path><path d="M 548 161 m -1, 0 a 1,1 0 1,0 2,0 a 1,1 0 1,0 -2,0 M 548 161 m -0.5, 0 a 0.5,0.5 0 1,0 1,0 a 0.5,0.5 0 1,0 -1,0  M548 161 L548 161 536 161 M 548 167 m -1, 0 a 1,1 0 1,0 2,0 a 1,1 0 1,0 -2,0 M 548 167 m -0.5, 0 a 0.5,0.5 0 1,0 1,0 a 0.5,0.5 0 1,0 -1,0  M548 167 L548 167 541 161 548 155 M 548 155 m -1, 0 a 1,1 0 1,0 2,0 a 1,1 0 1,0 -2,0 M 548 155 m -0.5, 0 a 0.5,0.5 0 1,0 1,0 a 0.5,0.5 0 1,0 -1,0  M536 161 C 490.66176497088185 161, 489.46176497088186 297, 538 297 M 550 297 m -1, 0 a 1,1 0 1,0 2,0 a 1,1 0 1,0 -2,0 M 550 297 m -0.5, 0 a 0.5,0.5 0 1,0 1,0 a 0.5,0.5 0 1,0 -1,0  M550 297 L550 297 538 297 M544 303 L544 303 544 291" id="h1950675103" class="r"></path><path d="M 182.04 361 m -1, 0 a 1,1 0 1,0 2,0 a 1,1 0 1,0 -2,0 M 182.04 361 m -0.5, 0 a 0.5,0.5 0 1,0 1,0 a 0.5,0.5 0 1,0 -1,0  M182.04 361 L182.04 361 194.04 361 M 182.04 367 m -1, 0 a 1,1 0 1,0 2,0 a 1,1 0 1,0 -2,0 M 182.04 367 m -0.5, 0 a 0.5,0.5 0 1,0 1,0 a 0.5,0.5 0 1,0 -1,0  M182.04 367 L182.04 367 189.04 361 182.04 355 M 182.04 355 m -1, 0 a 1,1 0 1,0 2,0 a 1,1 0 1,0 -2,0 M 182.04 355 m -0.5, 0 a 0.5,0.5 0 1,0 1,0 a 0.5,0.5 0 1,0 -1,0  M194.04 361 Q 212.53 361, 231.02 307 T 268 253 M 280 253 m -1, 0 a 1,1 0 1,0 2,0 a 1,1 0 1,0 -2,0 M 280 253 m -0.5, 0 a 0.5,0.5 0 1,0 1,0 a 0.5,0.5 0 1,0 -1,0  M280 253 L280 253 268 253 M274 259 L274 259 274 247" id="h724011168" class="r"></path></g><g class="hrs"></g><g class="ts"><svg width="172.06" height="225" x="280" y="171" id="h1639608377" class="t"><rect height="40" width="172.06" class="th"></rect><text x="13" y="25" class="tht">employees</text><rect height="185" width="172.06" class="t-bg"></rect><text x="13" y="61" class="tf pk">emp_no<tspan x="159.06" class="ty">int</tspan></text><path d="M7,14A2,2 0 0,1 5,12A2,2 0 0,1 7,10A2,2 0 0,1 9,12A2,2 0 0,1 7,14M12.65,10C11.83,7.67 9.61,6 7, 6A6, 6 0 0, 0 1, 12A6, 6 0 0, 0 7, 18C9.61, 18 11.83, 16.33 12.65, 14H17V18H21V14H23V10H12.65Z" class="i pk" transform="translate(126.386171875, 48) scale(0.65)"></path><text x="13" y="86" class="tf fk">emp_title_id<tspan x="159.06" class="ty">varcahr(10)</tspan></text><text x="13" y="111" class="tf">birth_date<tspan x="159.06" class="ty">datetime</tspan></text><text x="13" y="136" class="tf">first_name<tspan x="159.06" class="ty">varchar(25)</tspan></text><text x="13" y="161" class="tf">last_name<tspan x="159.06" class="ty">varchar(25)</tspan></text><text x="13" y="186" class="tf">sex<tspan x="159.06" class="ty">varchar(3)</tspan></text><text x="13" y="211" class="tf">hire_date<tspan x="159.06" class="ty">datetime</tspan></text></svg><svg width="162.04" height="100" x="20" y="304" id="h311790747" class="t"><rect height="40" width="162.04" class="th"></rect><text x="13" y="25" class="tht">titles</text><rect height="60" width="162.04" class="t-bg"></rect><text x="13" y="61" class="tf pk">title_id<tspan x="149.04" class="ty">varchar(10)</tspan></text><path d="M7,14A2,2 0 0,1 5,12A2,2 0 0,1 7,10A2,2 0 0,1 9,12A2,2 0 0,1 7,14M12.65,10C11.83,7.67 9.61,6 7, 6A6, 6 0 0, 0 1, 12A6, 6 0 0, 0 7, 18C9.61, 18 11.83, 16.33 12.65, 14H17V18H21V14H23V10H12.65Z" class="i pk" transform="translate(67.68648437499999, 48) scale(0.65)"></path><text x="13" y="86" class="tf">title<tspan x="149.04" class="ty">varcahr(25)</tspan></text></svg><svg width="150.73" height="100" x="26" y="130" id="h1090417462" class="t"><rect height="40" width="150.73" class="th"></rect><text x="13" y="25" class="tht">dept_emp</text><rect height="60" width="150.73" class="t-bg"></rect><text x="13" y="61" class="tf pk">emp_no<tspan x="137.73" class="ty">int</tspan></text><path d="M7,14A2,2 0 0,1 5,12A2,2 0 0,1 7,10A2,2 0 0,1 9,12A2,2 0 0,1 7,14M12.65,10C11.83,7.67 9.61,6 7, 6A6, 6 0 0, 0 1, 12A6, 6 0 0, 0 7, 18C9.61, 18 11.83, 16.33 12.65, 14H17V18H21V14H23V10H12.65Z" class="i pk" transform="translate(105.05617187499999, 48) scale(0.65)"></path><text x="13" y="86" class="tf">dept_no<tspan x="137.73" class="ty">varchar(10)</tspan></text></svg><svg width="170.73" height="100" x="550" y="240" id="h1676682957" class="t"><rect height="40" width="170.73" class="th"></rect><text x="13" y="25" class="tht">dept_manager</text><rect height="60" width="170.73" class="t-bg"></rect><text x="13" y="61" class="tf pk">dept_no<tspan x="157.73" class="ty">varchar(10)</tspan></text><path d="M7,14A2,2 0 0,1 5,12A2,2 0 0,1 7,10A2,2 0 0,1 9,12A2,2 0 0,1 7,14M12.65,10C11.83,7.67 9.61,6 7, 6A6, 6 0 0, 0 1, 12A6, 6 0 0, 0 7, 18C9.61, 18 11.83, 16.33 12.65, 14H17V18H21V14H23V10H12.65Z" class="i pk" transform="translate(76.37648437499999, 48) scale(0.65)"></path><text x="13" y="86" class="tf fk">emp_no<tspan x="157.73" class="ty">int</tspan></text></svg><svg width="170.73" height="100" x="548" y="104" id="h475896179" class="t"><rect height="40" width="170.73" class="th"></rect><text x="13" y="25" class="tht">departments</text><rect height="60" width="170.73" class="t-bg"></rect><text x="13" y="61" class="tf pk">dept_no<tspan x="157.73" class="ty">varchar(10)</tspan></text><path d="M7,14A2,2 0 0,1 5,12A2,2 0 0,1 7,10A2,2 0 0,1 9,12A2,2 0 0,1 7,14M12.65,10C11.83,7.67 9.61,6 7, 6A6, 6 0 0, 0 1, 12A6, 6 0 0, 0 7, 18C9.61, 18 11.83, 16.33 12.65, 14H17V18H21V14H23V10H12.65Z" class="i pk" transform="translate(76.37648437499999, 48) scale(0.65)"></path><text x="13" y="86" class="tf">dept_name<tspan x="157.73" class="ty">varchar(25)</tspan></text></svg><svg width="122.04" height="100" x="554" y="374" id="h2472833127" class="t"><rect height="40" width="122.04" class="th"></rect><text x="13" y="25" class="tht">salaries</text><rect height="60" width="122.04" class="t-bg"></rect><text x="13" y="61" class="tf pk">emp_no<tspan x="109.04" class="ty">int</tspan></text><path d="M7,14A2,2 0 0,1 5,12A2,2 0 0,1 7,10A2,2 0 0,1 9,12A2,2 0 0,1 7,14M12.65,10C11.83,7.67 9.61,6 7, 6A6, 6 0 0, 0 1, 12A6, 6 0 0, 0 7, 18C9.61, 18 11.83, 16.33 12.65, 14H17V18H21V14H23V10H12.65Z" class="i pk" transform="translate(76.366171875, 48) scale(0.65)"></path><text x="13" y="86" class="tf">salary<tspan x="109.04" class="ty">int</tspan></text></svg></g></g><text class="qdbd-link" x="10" y="20">www.quickdatabasediagrams.com</text></svg>